<?xml version="1.0" encoding="utf-8"?>
<svg version="1.1" xmlns:xlink="http://www.w3.org/1999/xlink" width="5px" height="4px" xmlns="http://www.w3.org/2000/svg">
  <g transform="matrix(1 0 0 1 -590 -247 )">
    <path d="M 4.9072265625 3.24305555555556  C 4.96907552083333 3.33101851851852  5 3.43518518518518  5 3.55555555555556  C 5 3.67592592592593  4.96907552083333 3.78009259259259  4.9072265625 3.86805555555556  C 4.84537760416667 3.95601851851852  4.77213541666667 4  4.6875 4  L 0.3125 4  C 0.227864583333333 4  0.154622395833333 3.95601851851852  0.0927734375 3.86805555555556  C 0.0309244791666667 3.78009259259259  0 3.67592592592593  0 3.55555555555556  C 0 3.43518518518518  0.0309244791666667 3.33101851851852  0.0927734375 3.24305555555556  L 2.2802734375 0.131944444444445  C 2.34212239583333 0.043981481481481  2.41536458333333 0  2.5 0  C 2.58463541666667 0  2.65787760416667 0.043981481481481  2.7197265625 0.131944444444445  L 4.9072265625 3.24305555555556  Z " fill-rule="nonzero" fill="#169bd5" stroke="none" transform="matrix(1 0 0 1 590 247 )" />
  </g>
</svg>