<?xml version="1.0" encoding="utf-8"?>
<svg version="1.1" xmlns:xlink="http://www.w3.org/1999/xlink" width="15px" height="15px" xmlns="http://www.w3.org/2000/svg">
  <g transform="matrix(1 0 0 1 -469 -162 )">
    <path d="M 12.314453125 8.564453125  C 12.4381510416667 8.44075520833333  12.5 8.29427083333333  12.5 8.125  L 12.5 6.875  C 12.5 6.70572916666667  12.4381510416667 6.55924479166667  12.314453125 6.435546875  C 12.1907552083333 6.31184895833333  12.0442708333333 6.25  11.875 6.25  L 6.97265625 6.25  L 8.818359375 4.404296875  C 8.94205729166667 4.28059895833333  9.00390625 4.13411458333333  9.00390625 3.96484375  C 9.00390625 3.79557291666666  8.94205729166667 3.64908854166666  8.818359375 3.525390625  L 7.9296875 2.63671875  C 7.8125 2.51953125  7.666015625 2.4609375  7.490234375 2.4609375  C 7.314453125 2.4609375  7.16796875 2.51953125  7.05078125 2.63671875  L 3.515625 6.171875  L 2.626953125 7.060546875  C 2.509765625 7.177734375  2.451171875 7.32421875  2.451171875 7.5  C 2.451171875 7.67578125  2.509765625 7.822265625  2.626953125 7.939453125  L 3.515625 8.828125  L 7.05078125 12.36328125  C 7.16796875 12.48046875  7.314453125 12.5390625  7.490234375 12.5390625  C 7.666015625 12.5390625  7.8125 12.48046875  7.9296875 12.36328125  L 8.818359375 11.474609375  C 8.935546875 11.357421875  8.994140625 11.2109375  8.994140625 11.03515625  C 8.994140625 10.859375  8.935546875 10.712890625  8.818359375 10.595703125  L 6.97265625 8.75  L 11.875 8.75  C 12.0442708333333 8.75  12.1907552083333 8.68815104166667  12.314453125 8.564453125  Z M 13.994140625 3.7353515625  C 14.6647135416667 4.88444010416667  15 6.13932291666666  15 7.5  C 15 8.86067708333333  14.6647135416667 10.1155598958333  13.994140625 11.2646484375  C 13.3235677083333 12.4137369791667  12.4137369791667 13.3235677083333  11.2646484375 13.994140625  C 10.1155598958333 14.6647135416667  8.86067708333333 15  7.5 15  C 6.13932291666667 15  4.88444010416667 14.6647135416667  3.7353515625 13.994140625  C 2.58626302083333 13.3235677083333  1.67643229166667 12.4137369791667  1.005859375 11.2646484375  C 0.335286458333333 10.1155598958333  0 8.86067708333333  0 7.5  C 0 6.13932291666666  0.335286458333333 4.88444010416667  1.005859375 3.7353515625  C 1.67643229166667 2.58626302083333  2.58626302083333 1.67643229166667  3.7353515625 1.005859375  C 4.88444010416667 0.335286458333332  6.13932291666667 0  7.5 0  C 8.86067708333333 0  10.1155598958333 0.335286458333332  11.2646484375 1.005859375  C 12.4137369791667 1.67643229166667  13.3235677083333 2.58626302083333  13.994140625 3.7353515625  Z " fill-rule="nonzero" fill="#000000" stroke="none" transform="matrix(1 0 0 1 469 162 )" />
  </g>
</svg>