<?xml version="1.0" encoding="utf-8"?>
<svg version="1.1" xmlns:xlink="http://www.w3.org/1999/xlink" width="11px" height="17px" xmlns="http://www.w3.org/2000/svg">
  <g transform="matrix(1 0 0 1 -369 -217 )">
    <path d="M 9.96100519930676 0.180245535714286  L 0.200173310225303 9.89453125  C 0.00317735413055953 10.0842633928571  -0.0413056036972861 10.3024553571429  0.0667244367417672 10.5491071428571  C 0.174754477180819 10.8020833333333  0.362218370883883 10.9285714285714  0.629116117850953 10.9285714285714  L 4.27036395147314 10.9285714285714  L 2.35441941074523 15.4441964285714  C 2.29087232813403 15.602306547619  2.29087232813403 15.7572544642857  2.35441941074523 15.9090401785714  C 2.41796649335644 16.0608258928571  2.52599653379549 16.1715029761905  2.67850953206239 16.2410714285714  L 4.36568457538995 16.9525669642857  C 4.52455228191797 17.0158110119048  4.68024263431542 17.0158110119048  4.83275563258232 16.9525669642857  C 4.98526863084922 16.8893229166667  5.09647602541883 16.7818080357143  5.16637781629116 16.6300223214286  L 6.98700173310225 12.3420758928571  L 9.96100519930676 15.3018973214286  C 10.0817446562681 15.4220610119048  10.2247255921433 15.4821428571429  10.3899480069324 15.4821428571429  C 10.4662045060659 15.4821428571429  10.5424610051993 15.4663318452381  10.6187175043328 15.4347098214286  C 10.8729058347776 15.3271949404762  11 15.140625  11 14.875  L 11 0.607142857142857  C 11 0.341517857142857  10.8729058347776 0.154947916666665  10.6187175043328 0.0474330357142863  C 10.5424610051993 0.0158110119047621  10.4662045060659 0  10.3899480069324 0  C 10.2183708838821 0  10.0753899480069 0.0600818452380967  9.96100519930676 0.180245535714286  Z " fill-rule="nonzero" fill="#7f7f7f" stroke="none" transform="matrix(1 0 0 1 369 217 )" />
  </g>
</svg>