<?xml version="1.0" encoding="utf-8"?>
<svg version="1.1" xmlns:xlink="http://www.w3.org/1999/xlink" width="16px" height="16px" viewBox="323 232  16 16" xmlns="http://www.w3.org/2000/svg">
  <path d="M 331 232  C 335.48 232  339 235.52  339 240  C 339 244.48  335.48 248  331 248  C 326.52 248  323 244.48  323 240  C 323 235.52  326.52 232  331 232  Z " fill-rule="nonzero" fill="#ffffff" stroke="none" />
  <path d="M 331 232.5  C 335.2 232.5  338.5 235.8  338.5 240  C 338.5 244.2  335.2 247.5  331 247.5  C 326.8 247.5  323.5 244.2  323.5 240  C 323.5 235.8  326.8 232.5  331 232.5  Z " stroke-width="1" stroke="#8c8c8c" fill="none" />
  <path d="M 331 244  C 328.76 244  327 242.24  327 240  C 327 237.76  328.76 236  331 236  C 333.24 236  335 237.76  335 240  C 335 242.24  333.24 244  331 244  " fill-rule="nonzero" fill="#8c8c8c" stroke="none" />
</svg>