<?xml version="1.0" encoding="utf-8"?>
<svg version="1.1" xmlns:xlink="http://www.w3.org/1999/xlink" width="16px" height="16px" viewBox="323 267  16 16" xmlns="http://www.w3.org/2000/svg">
  <path d="M 331 267  C 335.48 267  339 270.52  339 275  C 339 279.48  335.48 283  331 283  C 326.52 283  323 279.48  323 275  C 323 270.52  326.52 267  331 267  Z " fill-rule="nonzero" fill="#ffffff" stroke="none" />
  <path d="M 331 267.5  C 335.2 267.5  338.5 270.8  338.5 275  C 338.5 279.2  335.2 282.5  331 282.5  C 326.8 282.5  323.5 279.2  323.5 275  C 323.5 270.8  326.8 267.5  331 267.5  Z " stroke-width="1" stroke="#8c8c8c" fill="none" />
  <path d="M 331 279  C 328.76 279  327 277.24  327 275  C 327 272.76  328.76 271  331 271  C 333.24 271  335 272.76  335 275  C 335 277.24  333.24 279  331 279  " fill-rule="nonzero" fill="#8c8c8c" stroke="none" />
</svg>