<?xml version="1.0" encoding="utf-8"?>
<svg version="1.1" xmlns:xlink="http://www.w3.org/1999/xlink" width="13px" height="11px" xmlns="http://www.w3.org/2000/svg">
  <g transform="matrix(1 0 0 1 -509 -195 )">
    <path d="M 12.6936026936027 8.22222222222222  C 12.8978675645342 8.39506172839506  13 8.60493827160494  13 8.85185185185185  C 13 9.09876543209877  12.8978675645342 9.30864197530864  12.6936026936027 9.48148148148148  L 11.2053872053872 10.7407407407407  C 11.0011223344557 10.9135802469136  10.7530864197531 11  10.4612794612795 11  C 10.1694725028058 11  9.92143658810325 10.9135802469136  9.71717171717172 10.7407407407407  L 6.5 8.01851851851852  L 3.28282828282828 10.7407407407407  C 3.07856341189675 10.9135802469136  2.83052749719416 11  2.53872053872054 11  C 2.24691358024691 11  1.99887766554433 10.9135802469136  1.79461279461279 10.7407407407407  L 0.306397306397306 9.48148148148148  C 0.102132435465769 9.30864197530864  0 9.09876543209877  0 8.85185185185185  C 0 8.60493827160494  0.102132435465769 8.39506172839506  0.306397306397306 8.22222222222222  L 3.52356902356902 5.5  L 0.306397306397306 2.77777777777778  C 0.102132435465769 2.60493827160494  0 2.39506172839506  0 2.14814814814815  C 0 1.90123456790123  0.102132435465769 1.69135802469136  0.306397306397306 1.51851851851852  L 1.79461279461279 0.259259259259259  C 1.99887766554433 0.0864197530864194  2.24691358024691 0  2.53872053872054 0  C 2.83052749719416 0  3.07856341189675 0.0864197530864194  3.28282828282828 0.259259259259259  L 6.5 2.98148148148148  L 9.71717171717172 0.259259259259259  C 9.92143658810325 0.0864197530864194  10.1694725028058 0  10.4612794612795 0  C 10.7530864197531 0  11.0011223344557 0.0864197530864194  11.2053872053872 0.259259259259259  L 12.6936026936027 1.51851851851852  C 12.8978675645342 1.69135802469136  13 1.90123456790123  13 2.14814814814815  C 13 2.39506172839506  12.8978675645342 2.60493827160494  12.6936026936027 2.77777777777778  L 9.47643097643098 5.5  L 12.6936026936027 8.22222222222222  Z " fill-rule="nonzero" fill="#8c8c8c" stroke="none" transform="matrix(1 0 0 1 509 195 )" />
  </g>
</svg>