<?xml version="1.0" encoding="utf-8"?>
<svg version="1.1" xmlns:xlink="http://www.w3.org/1999/xlink" width="13px" height="10px" xmlns="http://www.w3.org/2000/svg">
  <g transform="matrix(1 0 0 1 -175 -15 )">
    <path d="M 12.6732336956522 4.42233632862644  C 12.8910778985507 4.57210098416774  13 4.76465554129225  13 5  C 13 5.23106546854942  12.8910778985507 5.4257595207531  12.6732336956522 5.58408215661104  L 6.92391304347826 9.76251604621309  C 6.69429347826087 9.92083868207103  6.42640398550725 10  6.12024456521739 10  C 5.81997282608696 10  5.55502717391304 9.92083868207103  5.32540760869565 9.76251604621309  L 4.66304347826087 9.2811296534018  C 4.4393115942029 9.11852802738554  4.32744565217391 8.92383397518186  4.32744565217391 8.69704749679076  C 4.32744565217391 8.47026101839966  4.4393115942029 8.27556696619598  4.66304347826087 8.11296534017972  L 7.25067934782609 6.23234916559692  L 1.03328804347826 6.23234916559692  C 0.727128623188406 6.23234916559692  0.478374094202899 6.15211810012837  0.287024456521739 5.99165596919127  C 0.0956748188405797 5.83119383825417  0 5.63756953359007  0 5.41078305519897  L 0 4.58921694480103  C 0 4.36243046640993  0.0956748188405797 4.16880616174583  0.287024456521739 4.00834403080873  C 0.478374094202899 3.84788189987163  0.727128623188406 3.76765083440308  1.03328804347826 3.76765083440308  L 7.25067934782609 3.76765083440308  L 4.66304347826087 1.8806161745828  C 4.4393115942029 1.72657252888318  4.32744565217391 1.53401797175867  4.32744565217391 1.30295250320924  C 4.32744565217391 1.07188703465982  4.4393115942029 0.879332477535302  4.66304347826087 0.725288831835686  L 5.32540760869565 0.24390243902439  C 5.54913949275362 0.0813008130081294  5.81408514492754 0  6.12024456521739 0  C 6.43229166666667 0  6.70018115942029 0.0813008130081294  6.92391304347826 0.24390243902439  L 12.6732336956522 4.42233632862644  Z " fill-rule="nonzero" fill="#ffffff" stroke="none" transform="matrix(1 0 0 1 175 15 )" />
  </g>
</svg>