<?xml version="1.0" encoding="utf-8"?>
<svg version="1.1" xmlns:xlink="http://www.w3.org/1999/xlink" width="11px" height="17px" xmlns="http://www.w3.org/2000/svg">
  <g transform="matrix(1 0 0 1 -700 -211 )">
    <path d="M 1.03899480069324 0.180245535714286  L 10.7998266897747 9.89453125  C 10.9968226458694 10.0842633928571  11.0413056036973 10.3024553571429  10.9332755632582 10.5491071428571  C 10.8252455228192 10.8020833333333  10.6377816291161 10.9285714285714  10.370883882149 10.9285714285714  L 6.72963604852686 10.9285714285714  L 8.64558058925477 15.4441964285714  C 8.70912767186597 15.602306547619  8.70912767186597 15.7572544642857  8.64558058925477 15.9090401785714  C 8.58203350664356 16.0608258928571  8.47400346620451 16.1715029761905  8.32149046793761 16.2410714285714  L 6.63431542461005 16.9525669642857  C 6.47544771808203 17.0158110119048  6.31975736568458 17.0158110119048  6.16724436741768 16.9525669642857  C 6.01473136915078 16.8893229166667  5.90352397458117 16.7818080357143  5.83362218370884 16.6300223214286  L 4.01299826689775 12.3420758928571  L 1.03899480069324 15.3018973214286  C 0.918255343731947 15.4220610119048  0.77527440785673 15.4821428571429  0.610051993067591 15.4821428571429  C 0.533795493934143 15.4821428571429  0.457538994800693 15.4663318452381  0.381282495667245 15.4347098214286  C 0.127094165222415 15.3271949404762  0 15.140625  0 14.875  L 0 0.607142857142857  C 0 0.341517857142857  0.127094165222415 0.154947916666665  0.381282495667245 0.0474330357142863  C 0.457538994800693 0.0158110119047621  0.533795493934143 0  0.610051993067591 0  C 0.78162911611785 0  0.924610051993067 0.0600818452380967  1.03899480069324 0.180245535714286  Z " fill-rule="nonzero" fill="#d7d7d7" stroke="none" transform="matrix(1 0 0 1 700 211 )" />
  </g>
</svg>