<?xml version="1.0" encoding="utf-8"?>
<svg version="1.1" xmlns:xlink="http://www.w3.org/1999/xlink" width="13px" height="10px" xmlns="http://www.w3.org/2000/svg">
  <g transform="matrix(1 0 0 1 -175 -16 )">
    <path d="M 12.691270860077 4.13351314902225  C 12.8970902866923 4.30883344571814  13 4.51337379186334  13 4.74713418745786  C 13 4.98538997527534  12.8970902866923 5.18768262530906  12.691270860077 5.354012137559  L 7.25930680359435 9.75050573162508  C 7.04236200256739 9.91683524387503  6.78925973470261 10  6.5 10  C 6.20517757809157 10  5.9548566538297 9.91683524387503  5.74903722721438 9.75050573162508  L 0.317073170731707 5.354012137559  C 0.105691056910569 5.19217801753203  0 4.98988536749831  0 4.74713418745786  C 0 4.50887839964037  0.105691056910569 4.30433805349517  0.317073170731707 4.13351314902225  L 0.934531450577664 3.62778152393796  C 1.15147625160462 3.46145201168802  1.40457851946941 3.37828725556305  1.69383825417202 3.37828725556305  C 1.98866067608045 3.37828725556305  2.23898160034232 3.46145201168802  2.44480102695764 3.62778152393796  L 4.897946084724 5.61024949426838  L 4.897946084724 0.863115306810519  C 4.897946084724 0.629354911216004  5.00363714163457 0.427062261182287  5.21501925545571 0.256237356709373  C 5.42640136927685 0.0854124522364563  5.67672229353873 0  5.96598202824133 0  L 7.03401797175867 0  C 7.32327770646128 0  7.57359863072315 0.0854124522364563  7.78498074454429 0.256237356709373  C 7.99636285836543 0.427062261182287  8.102053915276 0.629354911216004  8.102053915276 0.863115306810519  L 8.102053915276 5.61024949426838  L 10.5551989730424 3.62778152393796  C 10.7610183996577 3.46145201168802  11.0113393239196 3.37828725556305  11.306161745828 3.37828725556305  C 11.5954214805306 3.37828725556305  11.8485237483954 3.46145201168802  12.0654685494223 3.62778152393796  L 12.691270860077 4.13351314902225  Z " fill-rule="nonzero" fill="#fafafa" stroke="none" transform="matrix(1 0 0 1 175 16 )" />
  </g>
</svg>