<?xml version="1.0" encoding="utf-8"?>
<svg version="1.1" xmlns:xlink="http://www.w3.org/1999/xlink" width="10px" height="5px" xmlns="http://www.w3.org/2000/svg">
  <g transform="matrix(1 0 0 1 -180 -21 )">
    <path d="M 9.80113636363636 0.364583333333333  C 9.93371212121212 0.607638888888887  10 0.902777777777777  10 1.25  L 10 3.75  C 10 4.09722222222222  9.93371212121212 4.39236111111111  9.80113636363636 4.63541666666667  C 9.66856060606061 4.87847222222222  9.50757575757576 5  9.31818181818182 5  L 0.681818181818182 5  C 0.492424242424242 5  0.331439393939394 4.87847222222222  0.198863636363636 4.63541666666667  C 0.0662878787878788 4.39236111111111  0 4.09722222222222  0 3.75  L 0 1.25  C 0 0.902777777777777  0.0662878787878788 0.607638888888887  0.198863636363636 0.364583333333333  C 0.331439393939394 0.121527777777777  0.492424242424242 0  0.681818181818182 0  L 9.31818181818182 0  C 9.50757575757576 0  9.66856060606061 0.121527777777777  9.80113636363636 0.364583333333333  Z " fill-rule="nonzero" fill="#000000" stroke="none" transform="matrix(1 0 0 1 180 21 )" />
  </g>
</svg>