<?xml version="1.0" encoding="utf-8"?>
<svg version="1.1" xmlns:xlink="http://www.w3.org/1999/xlink" width="29px" height="25px" xmlns="http://www.w3.org/2000/svg">
  <g transform="matrix(1 0 0 1 -211 -11 )">
    <path d="M 28.6412760416667 20.37109375  C 28.8804253472222 20.6184895833333  29 20.9114583333333  29 21.25  L 29 23.75  C 29 24.0885416666667  28.8804253472222 24.3815104166667  28.6412760416667 24.62890625  C 28.4021267361111 24.8763020833333  28.1189236111111 25  27.7916666666667 25  L 1.20833333333333 25  C 0.881076388888889 25  0.597873263888889 24.8763020833333  0.358723958333333 24.62890625  C 0.119574652777778 24.3815104166667  0 24.0885416666667  0 23.75  L 0 21.25  C 0 20.9114583333333  0.119574652777778 20.6184895833333  0.358723958333333 20.37109375  C 0.597873263888889 20.1236979166667  0.881076388888889 20  1.20833333333333 20  L 27.7916666666667 20  C 28.1189236111111 20  28.4021267361111 20.1236979166667  28.6412760416667 20.37109375  Z M 28.6412760416667 10.37109375  C 28.8804253472222 10.6184895833333  29 10.9114583333333  29 11.25  L 29 13.75  C 29 14.0885416666667  28.8804253472222 14.3815104166667  28.6412760416667 14.62890625  C 28.4021267361111 14.8763020833333  28.1189236111111 15  27.7916666666667 15  L 1.20833333333333 15  C 0.881076388888889 15  0.597873263888889 14.8763020833333  0.358723958333333 14.62890625  C 0.119574652777778 14.3815104166667  0 14.0885416666667  0 13.75  L 0 11.25  C 0 10.9114583333333  0.119574652777778 10.6184895833333  0.358723958333333 10.37109375  C 0.597873263888889 10.1236979166667  0.881076388888889 10  1.20833333333333 10  L 27.7916666666667 10  C 28.1189236111111 10  28.4021267361111 10.1236979166667  28.6412760416667 10.37109375  Z M 28.6412760416667 0.371093750000001  C 28.8804253472222 0.618489583333331  29 0.911458333333331  29 1.25  L 29 3.75  C 29 4.08854166666666  28.8804253472222 4.38151041666666  28.6412760416667 4.62890625  C 28.4021267361111 4.87630208333333  28.1189236111111 5  27.7916666666667 5  L 1.20833333333333 5  C 0.881076388888889 5  0.597873263888889 4.87630208333333  0.358723958333333 4.62890625  C 0.119574652777778 4.38151041666666  0 4.08854166666666  0 3.75  L 0 1.25  C 0 0.911458333333331  0.119574652777778 0.618489583333331  0.358723958333333 0.371093750000001  C 0.597873263888889 0.123697916666665  0.881076388888889 0  1.20833333333333 0  L 27.7916666666667 0  C 28.1189236111111 0  28.4021267361111 0.123697916666665  28.6412760416667 0.371093750000001  Z " fill-rule="nonzero" fill="#555555" stroke="none" transform="matrix(1 0 0 1 211 11 )" />
  </g>
</svg>