<?xml version="1.0" encoding="utf-8"?>
<svg version="1.1" xmlns:xlink="http://www.w3.org/1999/xlink" width="14px" height="10px" xmlns="http://www.w3.org/2000/svg">
  <g transform="matrix(1 0 0 1 -654 -10 )">
    <path d="M 12.9292823467784 5.98011363636364  C 13.0172865374542 5.87594696969697  13.061288632792 5.78361742424242  13.061288632792 5.703125  C 13.061288632792 5.5374053030303  12.9317269076305 5.45454545454545  12.6726034573075 5.45454545454545  L 4.69355683603981 5.45454545454545  C 4.49799196787149 5.45454545454545  4.28898201501659 5.50544507575758  4.06652697747512 5.60724431818182  C 3.84407193993365 5.70904356060606  3.66928583900821 5.83333333333333  3.54216867469879 5.98011363636364  L 1.38606600314301 8.55823863636364  C 1.29806181246726 8.671875  1.25405971712939 8.76657196969697  1.25405971712939 8.84232954545455  C 1.25405971712939 9.00804924242424  1.3836214422909 9.09090909090909  1.64274489261393 9.09090909090909  L 9.62179151388161 9.09090909090909  C 9.81735638204994 9.09090909090909  10.0275886153309 9.03882575757576  10.2524882137245 8.93465909090909  C 10.477387812118 8.83049242424242  10.6509516326174 8.70501893939394  10.7731796752226 8.55823863636364  L 12.9292823467784 5.98011363636364  Z M 3.6668412781561 4.79048295454545  C 4.01885804085909 4.62713068181818  4.36109656015366 4.54545454545455  4.69355683603981 4.54545454545455  L 10.3258250392876 4.54545454545455  L 10.3258250392876 3.40909090909091  C 10.3258250392876 3.21969696969697  10.2573773354287 3.05871212121212  10.1204819277108 2.92613636363636  C 9.98358651999302 2.79356060606061  9.81735638204994 2.72727272727273  9.62179151388161 2.72727272727273  L 5.39759036144578 2.72727272727273  C 5.20202549327746 2.72727272727273  5.03579535533438 2.66098484848485  4.89889994761655 2.52840909090909  C 4.76200453989873 2.39583333333333  4.69355683603981 2.23484848484848  4.69355683603981 2.04545454545455  L 4.69355683603981 1.59090909090909  C 4.69355683603981 1.40151515151515  4.6251091321809 1.2405303030303  4.48821372446307 1.10795454545455  C 4.35131831674524 0.975378787878788  4.18508817880217 0.909090909090909  3.98952331063384 0.909090909090909  L 1.64274489261393 0.909090909090909  C 1.44718002444561 0.909090909090909  1.28094988650253 0.975378787878788  1.1440544787847 1.10795454545455  C 1.00715907106688 1.2405303030303  0.938711367207962 1.40151515151515  0.938711367207962 1.59090909090909  L 0.938711367207962 7.64914772727273  L 2.81613410162389 5.41193181818182  C 3.03125545660905 5.16098484848485  3.31482451545312 4.95383522727273  3.6668412781561 4.79048295454545  Z M 13.8899947616553 5.22017045454545  C 13.9633315872184 5.37168560606061  14 5.53267045454545  14 5.703125  C 14 5.99668560606061  13.8875502008032 6.28077651515151  13.6626506024096 6.55539772727273  L 11.4992142482975 9.13352272727273  C 11.2889820150166 9.3844696969697  11.0054129561725 9.59161931818182  10.6485070717653 9.75497159090909  C 10.2916011873581 9.91832386363636  9.94936266806356 10  9.62179151388161 10  L 1.64274489261393 10  C 1.19294569582679 10  0.806705081194343 9.84375  0.484023048716606 9.53125  C 0.161341016238869 9.21875  0 8.84469696969697  0 8.40909090909091  L 0 1.59090909090909  C 0 1.15530303030303  0.161341016238869 0.78125  0.484023048716606 0.46875  C 0.806705081194343 0.15625  1.19294569582679 0  1.64274489261393 0  L 3.98952331063384 0  C 4.43932250742099 0  4.82556312205343 0.15625  5.14824515453117 0.46875  C 5.47092718700891 0.78125  5.63226820324777 1.15530303030303  5.63226820324777 1.59090909090909  L 5.63226820324777 1.81818181818182  L 9.62179151388161 1.81818181818182  C 10.0715907106688 1.81818181818182  10.4578313253012 1.97443181818182  10.7805133577789 2.28693181818182  C 11.1031953902567 2.59943181818182  11.2645364064955 2.97348484848485  11.2645364064955 3.40909090909091  L 11.2645364064955 4.54545454545455  L 12.6726034573075 4.54545454545455  C 12.9366160293347 4.54545454545455  13.178627553693 4.60345643939394  13.3986380303824 4.71946022727273  C 13.6186485070718 4.83546401515151  13.7824340841627 5.00236742424242  13.8899947616553 5.22017045454545  Z " fill-rule="nonzero" fill="#000000" stroke="none" transform="matrix(1 0 0 1 654 10 )" />
  </g>
</svg>